<svg width="100%" viewBox="0 0 680 920" xmlns="http://www.w3.org/2000/svg" style="font-family: Arial, Helvetica, sans-serif; background: #f8f9fa;">
<style>
  .title { font-size: 18px; font-weight: 600; fill: #1a1a1a; }
  .section { font-size: 14px; font-weight: 600; fill: #333; }
  .label { font-size: 12px; fill: #555; }
  .box-text { font-size: 12px; font-weight: 500; fill: #fff; text-anchor: middle; dominant-baseline: central; }
  .box-text-dark { font-size: 12px; font-weight: 500; fill: #333; text-anchor: middle; dominant-baseline: central; }
  .sub-text { font-size: 10px; fill: #fff; text-anchor: middle; dominant-baseline: central; }
  .sub-text-dark { font-size: 10px; fill: #666; text-anchor: middle; dominant-baseline: central; }
  .note { font-size: 11px; fill: #666; text-anchor: middle; }
</style>
<defs>
  <marker id="arrow" viewBox="0 0 10 10" refX="8" refY="5" markerWidth="6" markerHeight="6" orient="auto-start-reverse">
    <path d="M2 1L8 5L2 9" fill="none" stroke="context-stroke" stroke-width="1.5" stroke-linecap="round" stroke-linejoin="round"/>
  </marker>
</defs>

<!-- Title -->
<text class="title" x="340" y="30" text-anchor="middle">ECS CI/CD Lab — Network Architecture</text>
<text class="label" x="340" y="48" text-anchor="middle">Kakwezi Peace | eu-north-1 (Stockholm)</text>

<!-- CI/CD Pipeline Section -->
<text class="section" x="340" y="72" text-anchor="middle">CI/CD Pipeline</text>

<!-- Build Row -->
<rect x="50" y="84" width="130" height="44" rx="8" fill="#444" stroke="#333" stroke-width="0.5"/>
<text class="box-text" x="115" y="100">GitHub repo</text>
<text class="sub-text" x="115" y="116">Application code</text>

<line x1="180" y1="106" x2="218" y2="106" stroke="#888" stroke-width="1" marker-end="url(#arrow)"/>

<rect x="220" y="84" width="150" height="44" rx="8" fill="#7F77DD" stroke="#534AB7" stroke-width="0.5"/>
<text class="box-text" x="295" y="100">GitHub Actions</text>
<text class="sub-text" x="295" y="116">OIDC authentication</text>

<line x1="370" y1="106" x2="408" y2="106" stroke="#888" stroke-width="1" marker-end="url(#arrow)"/>

<rect x="410" y="84" width="130" height="44" rx="8" fill="#D85A30" stroke="#993C1D" stroke-width="0.5"/>
<text class="box-text" x="475" y="100">Amazon ECR</text>
<text class="sub-text" x="475" y="116">Container images</text>

<!-- Deploy Row -->
<line x1="475" y1="128" x2="475" y2="150" stroke="#888" stroke-width="1" marker-end="url(#arrow)"/>

<rect x="410" y="152" width="130" height="44" rx="8" fill="#BA7517" stroke="#854F0B" stroke-width="0.5"/>
<text class="box-text" x="475" y="168">EventBridge</text>
<text class="sub-text" x="475" y="184">ECR push event</text>

<line x1="410" y1="174" x2="372" y2="174" stroke="#888" stroke-width="1" marker-end="url(#arrow)"/>

<rect x="220" y="152" width="150" height="44" rx="8" fill="#378ADD" stroke="#185FA5" stroke-width="0.5"/>
<text class="box-text" x="295" y="168">CodePipeline</text>
<text class="sub-text" x="295" y="184">Orchestration</text>

<line x1="220" y1="174" x2="182" y2="174" stroke="#888" stroke-width="1" marker-end="url(#arrow)"/>

<rect x="50" y="152" width="130" height="44" rx="8" fill="#1D9E75" stroke="#0F6E56" stroke-width="0.5"/>
<text class="box-text" x="115" y="168">CodeDeploy</text>
<text class="sub-text" x="115" y="184">Blue/green deploy</text>

<line x1="115" y1="196" x2="115" y2="214" stroke="#888" stroke-width="1" stroke-dasharray="4 3"/>

<!-- AWS Cloud Container -->
<rect x="30" y="220" width="620" height="670" rx="14" fill="none" stroke="#999" stroke-width="1" stroke-dasharray="6 4"/>
<text class="section" x="50" y="242">AWS Cloud — eu-north-1</text>

<!-- VPC Container -->
<rect x="50" y="256" width="580" height="618" rx="10" fill="#f0f4f8" stroke="#b0bec5" stroke-width="1"/>
<text class="section" x="70" y="278">VPC — 10.0.0.0/16</text>

<!-- Internet Gateway -->
<rect x="275" y="290" width="130" height="34" rx="6" fill="#78909c" stroke="#546e7a" stroke-width="0.5"/>
<text class="box-text" x="340" y="307">Internet gateway</text>

<line x1="340" y1="324" x2="340" y2="350" stroke="#546e7a" stroke-width="1" marker-end="url(#arrow)"/>

<!-- AZ-a -->
<rect x="70" y="354" width="260" height="330" rx="8" fill="none" stroke="#90a4ae" stroke-width="0.5" stroke-dasharray="4 3"/>
<text class="label" x="90" y="372">Availability Zone A</text>

<!-- Public Subnet AZ-a -->
<rect x="85" y="382" width="230" height="80" rx="8" fill="#C0DD97" stroke="#639922" stroke-width="0.5"/>
<text class="box-text-dark" x="200" y="400">Public subnet</text>
<text class="sub-text-dark" x="200" y="416">10.0.1.0/24</text>

<!-- ALB AZ-a -->
<rect x="120" y="430" width="160" height="24" rx="6" fill="#378ADD" stroke="#185FA5" stroke-width="0.5"/>
<text style="font-size:10px;fill:#fff;text-anchor:middle;dominant-baseline:central" x="200" y="442">ALB (port 80)</text>

<!-- Private Subnet AZ-a -->
<rect x="85" y="480" width="230" height="100" rx="8" fill="#CECBF6" stroke="#534AB7" stroke-width="0.5"/>
<text class="box-text-dark" x="200" y="498">Private subnet</text>
<text class="sub-text-dark" x="200" y="514">10.0.3.0/24</text>

<!-- ECS AZ-a -->
<rect x="110" y="530" width="180" height="36" rx="6" fill="#1D9E75" stroke="#0F6E56" stroke-width="0.5"/>
<text class="box-text" x="200" y="542">ECS Fargate task</text>
<text class="sub-text" x="200" y="556">Port 8080</text>

<!-- AZ-b -->
<rect x="350" y="354" width="260" height="330" rx="8" fill="none" stroke="#90a4ae" stroke-width="0.5" stroke-dasharray="4 3"/>
<text class="label" x="370" y="372">Availability Zone B</text>

<!-- Public Subnet AZ-b -->
<rect x="365" y="382" width="230" height="80" rx="8" fill="#C0DD97" stroke="#639922" stroke-width="0.5"/>
<text class="box-text-dark" x="480" y="400">Public subnet</text>
<text class="sub-text-dark" x="480" y="416">10.0.2.0/24</text>

<!-- ALB AZ-b -->
<rect x="400" y="430" width="160" height="24" rx="6" fill="#378ADD" stroke="#185FA5" stroke-width="0.5"/>
<text style="font-size:10px;fill:#fff;text-anchor:middle;dominant-baseline:central" x="480" y="442">ALB (port 80)</text>

<!-- Private Subnet AZ-b -->
<rect x="365" y="480" width="230" height="100" rx="8" fill="#CECBF6" stroke="#534AB7" stroke-width="0.5"/>
<text class="box-text-dark" x="480" y="498">Private subnet</text>
<text class="sub-text-dark" x="480" y="514">10.0.4.0/24</text>

<!-- ECS AZ-b -->
<rect x="390" y="530" width="180" height="36" rx="6" fill="#1D9E75" stroke="#0F6E56" stroke-width="0.5"/>
<text class="box-text" x="480" y="542">ECS Fargate task</text>
<text class="sub-text" x="480" y="556">Port 8080</text>

<!-- Arrows ALB to ECS -->
<line x1="200" y1="454" x2="200" y2="478" stroke="#185FA5" stroke-width="1" marker-end="url(#arrow)"/>
<line x1="480" y1="454" x2="480" y2="478" stroke="#185FA5" stroke-width="1" marker-end="url(#arrow)"/>

<!-- Auto Scaling -->
<rect x="85" y="598" width="230" height="24" rx="6" fill="#BA7517" stroke="#854F0B" stroke-width="0.5"/>
<text style="font-size:10px;fill:#fff;text-anchor:middle;dominant-baseline:central" x="200" y="610">Auto scaling: 1-4 tasks (CPU 70%)</text>

<!-- Arrows ECS to VPC Endpoints -->
<line x1="200" y1="566" x2="200" y2="700" stroke="#993C1D" stroke-width="0.5" stroke-dasharray="4 3"/>
<line x1="480" y1="566" x2="480" y2="700" stroke="#993C1D" stroke-width="0.5" stroke-dasharray="4 3"/>

<!-- VPC Endpoints -->
<rect x="85" y="702" width="510" height="80" rx="8" fill="#FAECE7" stroke="#D85A30" stroke-width="0.5"/>
<text class="box-text-dark" x="340" y="722">VPC endpoints (private connectivity)</text>

<rect x="100" y="738" width="105" height="28" rx="6" fill="#D85A30" stroke="#993C1D" stroke-width="0.5"/>
<text style="font-size:10px;fill:#fff;text-anchor:middle;dominant-baseline:central" x="152" y="752">ECR API</text>

<rect x="218" y="738" width="105" height="28" rx="6" fill="#D85A30" stroke="#993C1D" stroke-width="0.5"/>
<text style="font-size:10px;fill:#fff;text-anchor:middle;dominant-baseline:central" x="270" y="752">ECR DKR</text>

<rect x="336" y="738" width="105" height="28" rx="6" fill="#D85A30" stroke="#993C1D" stroke-width="0.5"/>
<text style="font-size:10px;fill:#fff;text-anchor:middle;dominant-baseline:central" x="388" y="752">S3 Gateway</text>

<rect x="454" y="738" width="125" height="28" rx="6" fill="#D85A30" stroke="#993C1D" stroke-width="0.5"/>
<text style="font-size:10px;fill:#fff;text-anchor:middle;dominant-baseline:central" x="516" y="752">CloudWatch Logs</text>

<!-- Legend / Notes -->
<text class="note" x="340" y="810">Blue/green deployment via CodeDeploy | OIDC auth (no long-lived secrets)</text>
<text class="note" x="340" y="828">ECS tasks pull images via VPC endpoints (no internet required)</text>
<text class="note" x="340" y="846">All infrastructure provisioned via CloudFormation with GitSync</text>

<!-- Security Groups Legend -->
<rect x="100" y="860" width="200" height="24" rx="6" fill="none" stroke="#90a4ae" stroke-width="0.5"/>
<text style="font-size:10px;fill:#666;text-anchor:middle;dominant-baseline:central" x="200" y="872">ALB SG: inbound 80 from 0.0.0.0/0</text>
<rect x="380" y="860" width="200" height="24" rx="6" fill="none" stroke="#90a4ae" stroke-width="0.5"/>
<text style="font-size:10px;fill:#666;text-anchor:middle;dominant-baseline:central" x="480" y="872">ECS SG: inbound 8080 from ALB SG</text>

</svg>